<svg xmlns="http://www.w3.org/2000/svg" width="126" height="36" fill="none" viewBox="0 0 126 36"><path fill="url(#a)" d="M10.791 6.492V25.97H4.168C1.86 25.97 0 24.146 0 21.885V5.105C0 2.334 1.786.22 4.168 0h1.488c1.34.219 2.68.802 3.498 1.897 1.116 1.24 1.637 2.772 1.637 4.595z"/><path fill="#488EFF" d="M34.828 6.492v26.991c0 .292-.074.51-.297.73l-1.414 1.313c-.447.438-1.042.438-1.414 0l-1.042-.949c-.447-.437-1.042-.437-1.414 0l-1.042.949c-.446.438-1.042.438-1.414 0l-.967-.949c-.447-.437-1.042-.437-1.414 0L23.368 35.6c-.447.438-1.042.438-1.414 0l-1.117-.876c-.446-.437-1.041-.437-1.413 0l-1.042.949c-.447.437-1.042.437-1.414 0l-1.042-.949c-.447-.437-1.042-.437-1.414 0l-1.117.949c-.446.437-1.041.437-1.414 0l-1.34-1.094a.933.933 0 0 1-.297-.73V6.492c0-.802-.52-2.626-2.084-4.741C7.293.438 5.805.146 4.837 0h-.595 23.815c3.646 0 6.771 2.918 6.771 6.492z"/><path fill="#fff" fill-rule="evenodd" d="M29.322 9.119c0 .291-.223.51-.521.51h-9.75a.504.504 0 0 1-.52-.51c0-.292.223-.511.52-.511h9.75c.298 0 .52.219.52.51zm0 4.814c0 .292-.223.51-.521.51h-9.75a.504.504 0 0 1-.52-.51c0-.292.223-.51.52-.51h9.75c.298 0 .52.218.52.51zm-12.726 4.231c0 .51-.447.948-.968.948-.52 0-.967-.437-.967-.948 0-.51.446-.948.967-.948.521.073.968.438.968.948zm0-4.741c0 .51-.447.948-.968.948-.52 0-.967-.438-.967-.948 0-.511.446-.949.967-.949.521 0 .968.438.968.949zm0-4.815c0 .51-.447.948-.968.948-.52 0-.967-.437-.967-.948 0-.51.446-.948.967-.948.521.072.968.437.968.948zm0 14.444c0 .51-.447.948-.968.948-.52 0-.967-.438-.967-.948 0-.511.446-.949.967-.949.521-.073.968.365.968.949zm12.726-4.377c0 .292-.223.51-.521.51h-9.75a.504.504 0 0 1-.52-.51c0-.292.223-.51.52-.51h9.75c.298 0 .52.218.52.51zm0 4.815c0 .291-.223.51-.521.51h-9.75a.504.504 0 0 1-.52-.51c0-.292.223-.511.52-.511h9.75c.298.073.52.292.52.51z" clip-rule="evenodd"/><path fill="#2E3B50" d="M50.464 27.748c-2.754 0-4.838-.73-6.252-2.262-1.414-1.532-2.158-3.574-2.158-6.273 0-1.386.224-2.554.67-3.648.447-1.094 1.042-1.97 1.786-2.699a7.218 7.218 0 0 1 2.68-1.678 10.188 10.188 0 0 1 3.422-.583c.745 0 1.34.073 1.935.146a8.18 8.18 0 0 1 1.563.364c.447.146.819.292 1.117.438.297.146.52.219.595.365l-1.116 2.918a6.438 6.438 0 0 0-1.786-.657c-.67-.219-1.489-.292-2.308-.292-.595 0-1.116.073-1.711.292-.521.219-1.042.51-1.489.948-.446.438-.744.949-1.041 1.605-.224.657-.373 1.46-.373 2.408 0 .73.075 1.459.224 2.115.149.657.446 1.24.818 1.678.373.51.893.875 1.489 1.094.595.292 1.34.438 2.232.438.521 0 1.042 0 1.489-.073.446-.073.818-.146 1.19-.219.373-.073.67-.219.894-.292.223-.146.52-.218.67-.291l1.041 2.99c-.52.292-1.265.584-2.232.876-.968.146-2.084.292-3.35.292zm7.739-.292V9.584L61.85 9v5.982c.223-.073.52-.146.967-.22.372-.072.744-.072 1.117-.072 1.041 0 1.86.146 2.604.438.67.291 1.265.656 1.638 1.167.446.51.67 1.094.892 1.823.15.73.224 1.46.224 2.335v7.076h-3.647V20.89c0-1.168-.149-1.97-.446-2.408-.298-.51-.819-.73-1.638-.73-.297 0-.595 0-.893.074-.297.073-.52.146-.744.146v9.483h-3.72zm18.903-12.839c1.042 0 1.935.146 2.68.365a3.943 3.943 0 0 1 1.71 1.021c.447.438.745.948.894 1.605.149.657.298 1.313.298 2.115v7.368c-.521.146-1.266.22-2.159.365-.893.146-2.009.219-3.349.219-.818 0-1.562-.073-2.232-.219-.67-.146-1.265-.365-1.712-.73a2.592 2.592 0 0 1-1.116-1.24c-.298-.51-.447-1.167-.447-1.896 0-.73.15-1.313.447-1.824.297-.51.67-.875 1.19-1.24a5.939 5.939 0 0 1 1.712-.657 9.415 9.415 0 0 1 2.01-.218c.446 0 .893 0 1.265.072.372.073.67.073.893.146v-.364c0-.584-.149-1.095-.521-1.46-.372-.364-1.042-.51-1.935-.51-.595 0-1.19.073-1.786.146a8.173 8.173 0 0 0-1.563.365l-.447-2.845c.224-.073.447-.146.82-.22.297-.072.669-.145 1.041-.218.372-.073.744-.073 1.19-.146h1.117zm.298 10.359h1.042c.297 0 .595-.073.744-.073v-2.7c-.149 0-.372-.072-.67-.072-.298 0-.52-.073-.819-.073-.372 0-.67 0-.967.073-.298.073-.595.146-.819.219a3.134 3.134 0 0 0-.52.437 1.215 1.215 0 0 0-.224.73c0 .583.223.948.595 1.167.447.146.968.292 1.638.292zm13.618 2.699c-1.041 0-1.934-.146-2.53-.365-.67-.219-1.19-.51-1.563-.875-.372-.365-.67-.803-.744-1.386-.149-.511-.223-1.095-.223-1.824V9.584L89.609 9v13.641c0 .292 0 .584.074.876.074.219.149.437.298.656.148.146.372.292.595.438.223.146.595.146 1.042.219l-.596 2.845zm7.591 0c-1.042 0-1.935-.146-2.53-.365-.67-.219-1.19-.51-1.563-.875-.372-.365-.67-.803-.744-1.386-.149-.511-.223-1.095-.223-1.824V9.584L97.199 9v13.641c0 .292 0 .584.075.876.074.219.149.437.297.656.15.146.373.292.596.438.223.146.595.146 1.042.219l-.596 2.845zm7.517-13.058a9.47 9.47 0 0 1 2.679.365 3.936 3.936 0 0 1 1.712 1.021c.447.438.744.948.893 1.605.149.657.298 1.313.298 2.115v7.368c-.521.146-1.265.22-2.158.365-.893.146-2.01.219-3.349.219-.819 0-1.563-.073-2.233-.219-.67-.146-1.265-.365-1.712-.73a2.59 2.59 0 0 1-1.116-1.24 4.8 4.8 0 0 1-.372-1.896c0-.73.149-1.313.446-1.824.298-.51.67-.875 1.191-1.24a5.94 5.94 0 0 1 1.712-.657 9.413 9.413 0 0 1 2.009-.218c.447 0 .893 0 1.265.072.372.073.67.073.893.146v-.364c0-.584-.148-1.095-.521-1.46-.372-.364-1.041-.51-1.934-.51-.596 0-1.191.073-1.787.146a8.16 8.16 0 0 0-1.562.365l-.447-2.845c.223-.073.447-.146.819-.22.297-.072.67-.145 1.042-.218.372-.073.744-.073 1.19-.146h1.042zm.298 10.359h1.042c.297 0 .595-.073.744-.073v-2.7c-.149 0-.372-.072-.67-.072-.297 0-.521-.073-.818-.073-.372 0-.67 0-.968.073a12.28 12.28 0 0 0-.818.219 3.153 3.153 0 0 0-.521.437 1.215 1.215 0 0 0-.224.73c0 .583.224.948.596 1.167.446.146.967.292 1.637.292zm8.558-9.629c.596-.146 1.414-.365 2.382-.511a20.693 20.693 0 0 1 3.051-.219c1.116 0 2.009.146 2.679.438.744.292 1.265.656 1.712 1.167.446.51.744 1.094.893 1.824.149.73.298 1.459.298 2.334v7.076h-3.647v-6.638c0-1.168-.149-1.97-.447-2.408-.297-.51-.893-.73-1.711-.73h-.819c-.298 0-.521.074-.744.074v9.629h-3.647V15.347z"/><defs><linearGradient id="a" x1="9.84" x2="2.13" y1="3.66" y2="24.1" gradientUnits="userSpaceOnUse"><stop offset=".14" stop-color="#0C0C0C"/><stop offset="1" stop-color="#394355"/></linearGradient></defs></svg>