<svg width="187" height="31" viewBox="0 0 187 31" fill="none" xmlns="http://www.w3.org/2000/svg">
<path d="M30.0753 18.9131L29.9355 19.1487L29.7958 19.2901C29.7026 19.3844 29.656 19.5258 29.5629 19.6201C29.5629 19.6201 29.5629 19.6201 29.5629 19.6672C29.3765 19.95 29.1902 20.2328 29.0038 20.5156C28.9573 20.5628 28.9573 20.6099 28.9107 20.657C28.8641 20.7042 28.8641 20.7513 28.8175 20.7984C28.7709 20.8927 28.6777 20.987 28.6312 21.0812C28.5846 21.1755 28.4914 21.2698 28.4448 21.3641C28.3051 21.5997 28.1653 21.7883 28.0256 22.0239C24.9976 23.8622 22.3422 23.9564 20.6186 22.3539C20.3857 22.1182 20.1528 21.8354 19.9198 21.5526C19.5472 21.0341 19.3142 20.4685 19.0813 19.9029C18.9416 19.6201 18.8018 19.2901 18.7086 19.0073C18.5689 18.7245 18.4757 18.3946 18.336 18.1118C18.1496 17.5933 17.9167 17.1219 17.7303 16.6035C17.6372 16.4149 17.5906 16.2264 17.4974 15.9907C17.3577 15.7079 17.2645 15.378 17.1247 15.0952C17.1247 15.048 17.0782 15.048 17.0782 15.0009C17.0782 14.9538 17.0316 14.9066 17.0316 14.8595C17.0316 14.8124 17.0316 14.8124 16.985 14.7652C16.985 14.7181 16.9384 14.7181 16.9384 14.671C16.8918 14.6238 16.8918 14.5295 16.8452 14.4824C16.7987 14.3881 16.7521 14.2939 16.7055 14.1525C16.6123 13.9639 16.5191 13.7283 16.3794 13.4926C16.5657 13.2098 16.7055 12.9741 16.8918 12.6913C17.0316 12.5028 17.1247 12.3142 17.2645 12.1257C17.2645 12.1257 17.2645 12.1257 17.2645 12.0786C17.2645 12.0786 17.2645 12.0786 17.2645 12.0314C17.4508 11.7486 17.6372 11.4187 17.8235 11.1359C17.8235 11.1359 17.8235 11.0887 17.8701 11.0416C17.8701 10.9945 17.9167 10.9945 17.9167 10.9473C17.9167 10.9473 17.9167 10.9002 17.9633 10.9002C18.0099 10.8059 18.103 10.6645 18.1496 10.5703C18.1962 10.5231 18.2428 10.4288 18.2428 10.3817C18.2894 10.3346 18.2894 10.3346 18.336 10.2874C18.9416 9.62756 19.5006 9.10908 20.1993 8.82627C21.5969 8.3078 22.9944 8.54347 24.392 9.10908C24.4851 9.15622 24.5783 9.20335 24.6715 9.25048C24.718 9.25048 24.718 9.29762 24.7646 9.29762C24.8112 9.34475 24.8578 9.34475 24.9044 9.39189C24.951 9.39189 24.9976 9.43902 24.9976 9.43902C25.0441 9.48616 25.0907 9.48616 25.1373 9.53329C25.1839 9.58043 25.2305 9.58043 25.2771 9.62756C25.3702 9.67469 25.4168 9.72183 25.51 9.8161C25.5566 9.86323 25.6032 9.86323 25.6497 9.91037C25.6963 9.9575 25.7429 10.0046 25.7895 10.0046C25.8827 10.0518 25.9292 10.146 26.0224 10.2403C26.069 10.2874 26.1156 10.3346 26.1156 10.3346L26.1622 10.3817C26.2088 10.4288 26.2088 10.476 26.2553 10.476C26.3019 10.5231 26.3485 10.5703 26.3951 10.6174C26.4417 10.6645 26.4883 10.7117 26.4883 10.7588C26.5348 10.8059 26.5814 10.8531 26.5814 10.9002C26.7212 11.0416 26.8144 11.2301 26.9075 11.4187C26.9541 11.4658 26.9541 11.5129 27.0007 11.5601C27.2336 12.0314 27.42 12.5499 27.6529 13.0684C27.7461 13.2569 27.7926 13.4455 27.8858 13.634C27.8858 13.6811 27.8858 13.6811 27.9324 13.7283C28.0721 14.0111 28.1653 14.2939 28.2585 14.5767C28.3982 14.9538 28.538 15.3308 28.7243 15.7079C28.9107 16.1793 29.097 16.6977 29.3299 17.1691C29.4697 17.5462 29.656 17.9232 29.7958 18.3474L30.0753 18.9131C30.0753 18.8659 30.0753 18.8659 30.0753 18.9131Z" fill="url(#paint0_linear)"/>
<path d="M59.8894 16.6974C60.1689 16.9331 60.5416 17.1216 60.9142 17.0745C61.5664 17.0273 61.8925 16.6031 61.6596 15.7547C61.5198 14.4349 61.4267 13.1623 61.2869 11.8425C61.1006 9.72149 60.8211 7.55331 60.5881 5.38512L60.1689 1.70863C60.0757 0.81307 59.6099 0.294591 58.7713 0.106053C58.4918 -0.0353509 58.2123 -0.0353509 57.9328 0.106053C57.7931 0.106053 57.6999 0.106053 57.6067 0.153187C56.5353 0.483129 55.4172 0.81307 54.3458 1.19015C53.5073 1.47295 52.6222 1.75576 51.7371 2.03857C50.2929 2.50991 48.8488 3.02839 47.4047 3.49974C46.4264 3.82967 45.4016 4.1596 44.3768 4.48952L44.3767 4.48956C43.6313 4.72523 43.3518 5.24371 43.6313 5.85646C43.7711 6.13927 44.004 6.32781 44.2369 6.46921C44.7028 6.79915 45.2152 7.08196 45.6811 7.4119C45.8674 7.55331 46.0537 7.69471 45.8208 8.02465C45.7276 8.21319 45.5879 8.35459 45.4481 8.54313L45.355 8.73167L44.5164 10.0986L43.9108 10.9941L43.3052 11.8897L43.2121 11.9839L42.1406 13.5865L44.5867 19.8706C45.5713 22.1447 48.6357 26.5713 52.552 23.6277L53.9265 22.2593L54.3458 21.5523C54.3924 21.458 54.4856 21.3637 54.5321 21.2694L54.5787 21.2223C55.2309 20.1854 55.883 19.1956 56.5352 18.2059L56.5353 18.2057C57.0477 17.4044 57.5601 16.6503 58.0726 15.849C58.2123 15.6604 58.3055 15.6133 58.4918 15.7076C58.9577 16.0375 59.4235 16.4146 59.8894 16.6974Z" fill="#3D89D0"/>
<path d="M28.0259 22.0232C27.9793 22.0703 27.9793 22.1175 27.9327 22.1646C27.9793 22.1175 28.0259 22.0703 28.0259 22.0232Z" fill="url(#paint1_linear)"/>
<path d="M53.9265 22.3064C53.7402 22.5892 53.5538 22.872 53.3675 23.202C53.0414 23.7204 52.7153 24.1918 52.3892 24.7103C51.3178 26.4071 50.1531 27.9625 48.4295 29.0938C46.9388 30.0365 45.4015 30.6021 43.6779 30.8849C42.1872 31.1206 40.7896 30.9791 39.3921 30.5549C37.6219 30.0365 36.038 29.1409 34.687 27.8211C33.7088 26.8784 32.9634 25.7944 32.3578 24.616C32.0317 23.9561 31.7988 23.2491 31.4727 22.5421C31.0534 21.5522 30.1683 19.2427 30.1218 19.1012C30.0752 19.0541 30.0752 18.9598 30.0286 18.9127C29.9354 18.7242 29.8422 18.5828 29.7957 18.3942C29.6559 18.0172 29.4696 17.6401 29.3298 17.2159C29.2366 17.0273 29.1901 16.8388 29.0969 16.6503C28.9571 16.3674 28.864 16.0846 28.7242 15.7547C28.5845 15.3776 28.4447 15.0005 28.2584 14.6235C28.1652 14.3407 28.0254 14.0579 27.9323 13.775C27.9323 13.7279 27.9323 13.7279 27.8857 13.6808C27.7925 13.4922 27.7459 13.3037 27.6528 13.1152C27.4664 12.5967 27.2335 12.1253 27.0006 11.6069C27.0006 11.5597 26.954 11.5126 26.9074 11.4655C26.8142 11.2769 26.7211 11.1355 26.5813 10.947C26.5347 10.8998 26.4882 10.8527 26.4882 10.8056C26.4416 10.7584 26.395 10.7113 26.395 10.6642C26.3484 10.617 26.3018 10.5699 26.2552 10.5228C26.2086 10.4756 26.2086 10.4285 26.1621 10.4285L26.1155 10.3814C26.0689 10.3342 26.0223 10.2871 26.0223 10.2871C25.9291 10.1928 25.8826 10.1457 25.7894 10.0514C25.7428 10.0043 25.6962 9.95715 25.6496 9.95715C25.603 9.91002 25.5565 9.91002 25.5099 9.86288C25.4167 9.81575 25.3701 9.76861 25.277 9.67435C25.2304 9.62721 25.1838 9.62721 25.1372 9.58008C25.0906 9.53294 25.044 9.53294 24.9974 9.48581C24.9509 9.48581 24.9043 9.43867 24.9043 9.43867C24.8577 9.39154 24.8111 9.39154 24.7645 9.3444C24.7179 9.3444 24.7179 9.29727 24.6714 9.29727C24.5782 9.25014 24.485 9.203 24.3918 9.15587C22.9943 8.59025 21.1775 8.77879 20.1992 9.10873C19.2675 9.43867 18.2893 10.3342 18.2427 10.4285C18.6619 9.72148 19.0812 8.96733 19.547 8.26031C20.1526 7.36475 20.7117 6.4692 21.3638 5.62078C22.3887 4.63095 23.4602 3.78253 24.6714 3.07551C27.0006 1.75575 29.4696 1.52007 32.0317 1.89715C33.3361 2.08569 34.5939 2.60417 35.7585 3.35832C36.9231 4.06534 37.9014 4.96089 38.7399 6.04499C39.2989 6.79914 39.8114 7.60043 40.1374 8.49598C40.6033 9.67435 41.1623 10.8056 41.5816 11.9839C41.7679 12.5496 42.0008 13.068 42.2338 13.6336C42.2338 13.6336 42.2338 13.6336 42.2338 13.6808V13.7279L45.0288 19.8554C45.4015 20.8452 45.9139 21.6465 46.7059 22.3535C47.2183 22.872 47.8705 23.1548 48.5227 23.3905C48.5693 23.3905 48.6158 23.4376 48.6624 23.4376C49.7805 23.7676 51.2246 23.3905 52.3426 23.0134C53.088 22.6835 53.6936 22.4007 53.9265 22.3064Z" fill="url(#paint2_linear)"/>
<path d="M28.0255 22.0238C27.9789 22.0709 27.9789 22.118 27.9324 22.1652C27.9324 22.1652 27.9324 22.1652 27.9324 22.2123C27.7926 22.448 27.6063 22.6836 27.4665 22.9664C25.8826 25.8416 24.4385 28.1512 21.6434 29.6595C19.3142 30.9793 16.8452 31.215 14.2831 30.8379C14.1433 30.8379 14.0501 30.7908 13.9104 30.7908C12.7458 30.6022 11.5812 30.0838 10.4165 29.2825C8.78607 28.1512 7.52829 26.5958 6.64318 24.8047L6.17733 23.9091L5.01272 21.5524L0.726927 12.6911C0.447419 12.0784 0.214496 11.4656 0.121327 10.8529C-0.437689 7.8834 0.95985 4.77252 3.80151 3.35849C5.43198 2.51007 7.24878 2.4158 8.87924 2.93428C10.6029 3.45276 12.1402 4.67825 13.0253 6.46937L13.1184 6.6579L14.7489 9.95732C14.7955 10.0516 14.7955 10.1459 14.8421 10.2401C15.075 10.8529 15.8204 12.4083 16.426 13.5867C16.4725 13.6809 16.5191 13.7752 16.5657 13.8223C16.6123 13.9638 16.7055 14.1052 16.752 14.1994C16.7986 14.2937 16.8452 14.3408 16.8452 14.4351C16.8452 14.4822 16.8918 14.4822 16.8918 14.5294C16.9384 14.5765 16.9384 14.6708 16.985 14.7179C16.985 14.765 17.0316 14.765 17.0316 14.8122C17.0316 14.8593 17.0781 14.8593 17.0781 14.9064C17.0781 14.9536 17.1247 15.0007 17.1247 15.0478C17.1247 15.095 17.1713 15.095 17.1713 15.1421C17.3111 15.4249 17.4042 15.7549 17.544 16.0377C17.6372 16.2262 17.6837 16.4147 17.7769 16.6504C17.9632 17.1689 18.1962 17.6402 18.3825 18.1587C18.5223 18.4415 18.6154 18.7715 18.7552 19.0543C18.8018 19.1485 18.8484 19.29 18.8949 19.3842C18.9881 19.5728 19.0347 19.7613 19.1279 19.9498C19.3608 20.5154 19.5937 21.0811 19.9664 21.5995C20.1993 21.8823 20.3857 22.1652 20.6652 22.4008C22.3888 23.9563 24.9975 23.862 28.0255 22.0238Z" fill="url(#paint3_linear)"/>
<path d="M68.0888 24.8694L68 7.88696H71.9963L71.8187 18.4448L76.8806 7.88696H80.6548L81.3209 18.3999L85.5392 7.88696H89.713L82.4754 24.8694H78.1683L77.5466 13.9072L72.3959 24.8694H68.0888Z" fill="#0D5293"/>
<path d="M92.7771 25.1385C89.2693 25.1385 86.7383 22.6675 86.7383 19.2081C86.7383 15.3893 89.8021 12.1545 93.4431 12.1545C96.6402 12.1545 98.8603 14.4458 98.8603 17.7704C98.8603 18.5342 98.8159 19.1182 98.7271 19.6124H90.4237C90.6457 21.0501 91.7114 22.0385 93.2211 22.0385C94.1536 22.0385 94.9528 21.724 95.5301 21.095L97.617 23.4762C96.0185 24.6443 94.5976 25.1385 92.7771 25.1385ZM90.6457 17.411H95.4857C95.3081 16.0632 94.4644 15.2545 93.2211 15.2545C92.0666 15.2096 91.0898 16.0632 90.6457 17.411Z" fill="#0D5293"/>
<path d="M105.965 24.9589C104.411 24.9589 103.167 24.24 102.368 22.8473L101.924 24.869H98.1499L101.791 7.52717L105.698 6.89819L104.322 13.5923C105.166 12.7836 106.32 12.2894 107.519 12.2894C110.139 12.2894 112.181 14.8054 112.181 18.0401C112.226 21.814 109.428 24.9589 105.965 24.9589ZM103.789 16.3778L102.945 20.4212C103.478 21.185 104.366 21.6792 105.388 21.6792C107.208 21.6792 108.54 20.2415 108.54 18.3097C108.54 16.6474 107.43 15.4793 105.92 15.4793C105.077 15.4793 104.411 15.7937 103.789 16.3778Z" fill="#0D5293"/>
<path d="M120.44 7.88696H125.058L127.899 24.8694H123.725L123.193 20.8259H117.154L114.978 24.8694H110.582L120.44 7.88696ZM122.704 17.5912L121.949 11.9304L118.886 17.5463H122.704V17.5912Z" fill="#0D5293"/>
<path d="M131.23 12.3347H135.004L134.782 13.5927C135.626 12.7391 136.736 12.2449 137.935 12.2449C140.555 12.2449 142.597 14.7608 142.597 17.9955C142.597 21.8143 139.8 24.9592 136.336 24.9592C134.782 24.9592 133.539 24.2853 132.828 22.9824L131.274 30.0809H127.456L131.23 12.3347ZM134.205 16.3332L133.317 20.5114C133.85 21.2303 134.738 21.6796 135.715 21.6796C137.535 21.6796 138.867 20.2419 138.867 18.31C138.867 16.6477 137.757 15.4796 136.247 15.4796C135.493 15.4796 134.827 15.7492 134.205 16.3332Z" fill="#0D5293"/>
<path d="M144.595 12.3347H148.369L148.147 13.5927C148.99 12.7391 150.101 12.2449 151.299 12.2449C153.919 12.2449 155.962 14.7608 155.962 17.9955C155.962 21.8143 153.164 24.9592 149.701 24.9592C148.147 24.9592 146.904 24.2853 146.193 22.9824L144.683 30.0809H140.865L144.595 12.3347ZM147.57 16.3332L146.682 20.5114C147.214 21.2303 148.102 21.6796 149.079 21.6796C150.9 21.6796 152.232 20.2419 152.232 18.31C152.232 16.6477 151.122 15.4796 149.612 15.4796C148.857 15.4796 148.191 15.7492 147.57 16.3332Z" fill="#0D5293"/>
<path d="M159.115 24.8694H155.296L158.005 12.3347H161.824L159.115 24.8694ZM158.449 8.47099C158.449 7.1681 159.559 6 160.847 6C161.912 6 162.8 6.85361 162.8 7.93186C162.8 9.27967 161.69 10.4029 160.358 10.4029C159.248 10.4029 158.449 9.54924 158.449 8.47099Z" fill="#0D5293"/>
<path d="M169.727 20.6909L171.592 23.1619C170.304 24.4648 168.572 25.1387 166.752 25.1387C163.466 25.1387 161.068 22.7126 161.068 19.388C161.068 15.3446 164.088 12.1099 167.862 12.1099C170.082 12.1099 171.947 13.0983 173.013 14.7606L170.304 17.0069C169.727 15.9736 168.927 15.4794 167.773 15.4794C166.13 15.4794 164.842 17.0518 164.842 19.0286C164.842 20.6909 165.819 21.6793 167.329 21.6793C168.261 21.7243 169.016 21.4098 169.727 20.6909Z" fill="#0D5293"/>
<path d="M175.722 7.52717L179.629 6.89819L177.365 17.6807L182.426 12.3344H187L180.517 18.6691L184.691 24.869H180.162L177.009 19.5676L175.899 24.869H172.081L175.722 7.52717Z" fill="#0D5293"/>
<defs>
<linearGradient id="paint0_linear" x1="23.1831" y1="24.7007" x2="23.3049" y2="8.44851" gradientUnits="userSpaceOnUse">
<stop stop-color="#327ACD"/>
<stop offset="1" stop-color="#4696D2"/>
</linearGradient>
<linearGradient id="paint1_linear" x1="27.9436" y1="22.0876" x2="28.0428" y2="22.0876" gradientUnits="userSpaceOnUse">
<stop offset="0.2029" stop-color="#4C51BF" stop-opacity="0.9"/>
<stop offset="1" stop-color="#5A67D8" stop-opacity="0.9"/>
</linearGradient>
<linearGradient id="paint2_linear" x1="32.4583" y1="2.22148" x2="39.8371" y2="30.0298" gradientUnits="userSpaceOnUse">
<stop offset="0.3367" stop-color="#42B9FF"/>
<stop offset="0.7818" stop-color="#3B97E1"/>
<stop offset="1" stop-color="#3784D1"/>
</linearGradient>
<linearGradient id="paint3_linear" x1="11.252" y1="0.972585" x2="15.8771" y2="25.7529" gradientUnits="userSpaceOnUse">
<stop offset="0.3367" stop-color="#42B9FF"/>
<stop offset="0.7818" stop-color="#3B97E1"/>
<stop offset="1" stop-color="#3784D1"/>
</linearGradient>
</defs>
</svg>
