<svg xmlns="http://www.w3.org/2000/svg" id="Layer_1" viewBox="0 0 126.1 36" width="126.1" height="36"><style>.st0{fill:#2f3c50}.st1{fill:#488eff}.st2{fill:#fff}</style><path d="M43.2 26.5c-2.4 0-4.3-.7-5.5-2-1.3-1.3-1.9-3.3-1.9-5.7 0-1.2.2-2.3.6-3.3.4-1 .9-1.8 1.6-2.4.7-.7 1.5-1.2 2.4-1.5s1.9-.5 3-.5c.6 0 1.2 0 1.7.1s1 .2 1.4.3.7.2 1 .4c.3.1.4.2.6.3l-1 2.7c-.5-.2-1-.5-1.6-.6-.6-.2-1.3-.3-2.1-.3-.5 0-1 .1-1.5.3s-.9.4-1.3.8-.7.9-.9 1.5-.3 1.3-.3 2.2c0 .7.1 1.3.2 1.9.2.6.4 1.1.7 1.5s.8.8 1.3 1c.5.3 1.2.4 2 .4.5 0 .9 0 1.3-.1s.7-.1 1-.2.6-.2.8-.3l.6-.3.9 2.7c-.5.3-1.1.5-2 .8-.8.2-1.8.3-3 .3zm18.7-15.2v2.9h-4.5v12H54v-12h-4.5v-2.9h12.4zm11.2 14.9c-.4-.8-.9-1.7-1.4-2.5-.5-.9-1.1-1.6-1.7-2.2-.2.2-.5.5-.8.9s-.6.8-.9 1.3c-.3.4-.6.9-.9 1.4s-.5.8-.6 1.1H63c.6-1.2 1.4-2.4 2.2-3.6.9-1.2 1.8-2.6 2.9-3.9l-4.9-7.3h4.1l2.8 4.3 2.9-4.3h3.8L72 18.6c1.3 1.6 2.3 3 3.1 4.4.8 1.3 1.5 2.4 1.9 3.3l-3.9-.1z" class="st0"/><path d="M79.1 26.2V11.3h10v2.8h-6.6v3.1h5.9V20h-5.9v6.1h-3.4v.1zm11.3-5.6c0-1 .2-1.9.5-2.6.3-.8.7-1.4 1.2-1.9s1.1-.9 1.7-1.1c.7-.3 1.3-.4 2-.4 1.6 0 2.9.5 3.8 1.5s1.4 2.4 1.4 4.3v1.2h-7.3c.1.7.4 1.2.9 1.6s1.3.6 2.2.6c.6 0 1.2-.1 1.7-.2.6-.1 1-.2 1.4-.4l.4 2.6c-.2.1-.4.2-.7.3-.3.1-.6.2-1 .2-.4.1-.7.1-1.1.2-.4 0-.8.1-1.2.1-1 0-1.9-.2-2.7-.5-.8-.3-1.4-.7-1.9-1.2s-.9-1.1-1.1-1.9c0-.8-.2-1.5-.2-2.4zm7.6-1.2c0-.3-.1-.5-.1-.8-.1-.3-.2-.5-.4-.7-.2-.2-.4-.4-.6-.5-.3-.1-.6-.2-.9-.2-.4 0-.7.1-.9.2-.3.1-.5.3-.6.5-.2.2-.3.4-.4.7-.1.3-.2.5-.2.8H98zm5 1.2c0-1 .2-1.9.5-2.6.3-.8.7-1.4 1.2-1.9s1.1-.9 1.7-1.1c.7-.3 1.3-.4 2-.4 1.6 0 2.9.5 3.8 1.5s1.4 2.4 1.4 4.3v1.2h-7.3c.1.7.4 1.2.9 1.6s1.3.6 2.2.6c.6 0 1.2-.1 1.7-.2.6-.1 1-.2 1.4-.4l.4 2.6c-.2.1-.4.2-.7.3-.3.1-.6.2-1 .2-.4.1-.7.1-1.1.2-.4 0-.8.1-1.2.1-1 0-1.9-.2-2.7-.5-.8-.3-1.4-.7-1.9-1.2s-.9-1.1-1.1-1.9c-.1-.8-.2-1.5-.2-2.4zm7.5-1.2c0-.3-.1-.5-.1-.8-.1-.3-.2-.5-.4-.7-.2-.2-.4-.4-.6-.5-.3-.1-.6-.2-.9-.2-.4 0-.7.1-.9.2-.3.1-.5.3-.6.5-.2.2-.3.4-.4.7-.1.3-.2.5-.2.8h4.1zm15.5 6.4c-.3.1-.6.2-1 .2-.4.1-.8.1-1.2.2-.4.1-.8.1-1.2.1-.4 0-.8.1-1.2.1-.9 0-1.8-.1-2.5-.4s-1.3-.7-1.8-1.2-.9-1.1-1.1-1.8c-.3-.7-.4-1.5-.4-2.4s.1-1.7.3-2.5c.2-.7.6-1.4 1-1.9s1-.9 1.6-1.2 1.3-.4 2.1-.4c.4 0 .8 0 1.2.1.4.1.7.2 1.1.4V10l3.2-.5-.1 16.3zm-7.2-5.4c0 1 .2 1.8.7 2.4.4.6 1.1.9 2 .9h.8c.2 0 .4 0 .6-.1v-5.8c-.2-.1-.5-.2-.8-.3-.3-.1-.6-.1-1-.1-1.5 0-2.3 1-2.3 3zM2.8 1.2h19.8c1.2 0 2.3.5 3.1 1.3.8.8 1.3 2 1.3 3.1V32c0 .7-.3 1.5-.8 2s-1.2.8-2 .8H3.6a2.732 2.732 0 0 1-2.7-2.7V3c0-.5.2-1 .6-1.3.3-.3.8-.5 1.3-.5z" class="st1"/><path d="M27 7.1h-3.1c-.8 0-1.6-.3-2.2-.9s-.9-1.4-.9-2.2V.9c1.6 0 3.2.7 4.4 1.8C26.4 3.9 27 5.5 27 7.1zm-9.3-.9h-7.5c-.2 0-.4.1-.6.3-.1.2-.2.4-.2.6s.1.5.2.6c.2.2.4.3.6.3h7.5c.2 0 .4-.1.6-.3.2-.2.2-.4.2-.6s-.1-.5-.2-.6c-.1-.2-.4-.3-.6-.3zm-1.6 17.2h-9c-.2 0-.5.1-.7.3-.2.2-.3.4-.3.7 0 .2.1.5.3.7.2.2.4.3.7.3h9c.2 0 .5-.1.7-.3.2-.2.3-.4.3-.7 0-.2-.1-.5-.3-.7-.2-.2-.4-.3-.7-.3zm4.7-3.9H7.1c-.2 0-.4.1-.6.3-.2.2-.2.4-.2.6s.1.5.2.6c.2.2.4.3.6.3h13.7c.2 0 .4-.1.6-.3.2-.2.2-.4.2-.6s-.1-.5-.2-.6c-.1-.2-.4-.3-.6-.3zm0-4H7.1c-.2 0-.4.1-.6.3s-.2.4-.2.6c0 .2.1.5.2.6.2.2.4.3.6.3h13.7c.2 0 .4-.1.6-.3.2-.2.2-.4.2-.6s-.1-.5-.2-.6c-.1-.2-.4-.3-.6-.3z" class="st2"/><path d="M23.9 8H27c.2 0 .4-.1.5-.2.2-.1.3-.2.4-.4.1 0 .1-.2.1-.3V7c0-1.5-.5-2.9-1.4-4.1v-.1l-.2-.2c-.1-.2-.3-.3-.5-.5-.7-.7-1.4-1.2-2.3-1.6-.8-.3-1.8-.5-2.7-.5H4C3 0 1.9.4 1.2 1.2.4 1.9 0 2.9 0 4v28c0 2.3 1.8 4 3.4 4h19.8c2.7 0 4.7-1.7 4.7-4V11.1c0-.1 0-.2-.1-.4 0-.1-.1-.2-.2-.3s-.2-.2-.3-.2c-.1 0-.2-.1-.4-.1-.1 0-.2 0-.4.1-.1 0-.2.1-.3.2s-.2.2-.2.3-.1.2-.1.4V32c0 1.3-1.1 2.2-2.8 2.2H3.4c-.4-.2-.8-.5-1.1-.9-.3-.4-.4-.9-.4-1.3V4c0-.3.1-.6.2-.8.1-.3.3-.5.5-.7.1-.2.3-.4.6-.5.3-.1.5-.2.8-.2h15.9V4c0 .5.1 1.1.3 1.5.2.5.5.9.9 1.3s.8.7 1.3.9c.5.2 1 .3 1.5.3zm0-1.8c-.3 0-.6-.1-.8-.2-.3-.1-.5-.3-.7-.5s-.4-.4-.5-.7c-.1-.3-.2-.5-.2-.8V1.9c1.1.2 2 .7 2.8 1.5s1.3 1.7 1.5 2.8h-2.1z" class="st0"/><circle cx="19.1" cy="24.2" r="1" class="st2"/></svg>