<svg xmlns="http://www.w3.org/2000/svg" width="57" height="48" fill="none" viewBox="0 0 57 48"><path fill="#fff" d="M43.524 17.207c5.148 0 9.36 4.076 9.36 9.057 0 4.981-4.212 9.057-9.36 9.057h-32.76c-5.148 0-9.36-4.076-9.36-9.057 0-4.981 4.212-9.056 9.36-9.056h2.34v-2.265c0-7.517 6.271-13.584 14.04-13.584 7.77 0 14.04 6.067 14.04 13.584v2.264h2.34z"/><path fill="#0088F7" d="M37.44 38.943c0-4.98 4.212-9.056 9.36-9.056 2.434 0 4.68.905 6.319 2.4.327.317.187 1.087.514 1.449.328.362 1.03.272 1.264.679a8.81 8.81 0 0 1 1.264 4.528c0 4.982-4.212 9.057-9.36 9.057-5.149 0-9.36-4.075-9.36-9.057z"/><path fill="#fff" d="M53.119 32.287l-6.272 6.792-2.246-2.807c-.468-.589-1.357-.68-1.966-.227a1.332 1.332 0 0 0-.234 1.902l3.276 4.076c.234.317.656.498 1.077.543h.047a1.36 1.36 0 0 0 1.03-.453l7.066-7.698a9.663 9.663 0 0 0-1.778-2.128z"/><path fill="#444B54" d="M32.76 36.68H10.764C4.82 36.68 0 32.014 0 26.263c0-5.75 4.82-10.415 10.764-10.415h.936v-.906C11.7 6.702 18.627 0 27.144 0c8.518 0 15.444 6.702 15.444 14.943v.906h.936c5.944 0 10.764 4.664 10.764 10.415 0 .77-.608 1.359-1.403 1.359-.796 0-1.404-.589-1.404-1.359 0-4.256-3.557-7.698-7.957-7.698h-2.34c-.795 0-1.404-.589-1.404-1.358v-2.265c0-6.747-5.663-12.226-12.636-12.226-6.973 0-12.636 5.48-12.636 12.226v2.265c0 .77-.608 1.358-1.404 1.358h-2.34c-4.4 0-7.956 3.442-7.956 7.698 0 4.257 3.557 7.698 7.956 7.698H32.76c.796 0 1.404.589 1.404 1.359s-.608 1.358-1.404 1.358z"/></svg>