<svg xmlns="http://www.w3.org/2000/svg" width="40" height="48" fill="none" viewBox="0 0 40 48"><path fill="#fff" d="M31.255 18.832c0 6.31-5.133 11.429-11.46 11.429-6.328 0-11.46-5.118-11.46-11.429V5.217l22.92 2.733v10.882z"/><path fill="#0088F7" d="M38.547 46.297c-3.74-6.461-10.716-10.819-18.752-10.819-8.037 0-15.013 4.358-18.753 10.82L1.092 48h37.405l.05-1.703z"/><path fill="#444B54" d="M1.473 48c-.247 0-.494-.05-.741-.199-.692-.397-.939-1.29-.543-2.035 4-7.048 11.506-11.466 19.605-11.466 8.1 0 15.606 4.418 19.607 11.466.395.695.148 1.638-.544 2.035-.691.398-1.63.15-2.024-.546-3.507-6.155-10.026-9.977-17.038-9.977-7.013 0-13.532 3.822-17.038 9.977A1.473 1.473 0 0 1 1.473 48zM26.51 3.574l-.198-.298C24.881 1.241 22.511 0 20.042 0h-4.198C9.572 0 4.485 5.113 4.485 11.417c0 .844.642 1.489 1.482 1.489h2.666c5.68 0 11.458 0 15.606-3.723v.05c.198-.199.395-.348.543-.546.544-.596 1.482-.695 2.075-.15.642.547.691 1.54.098 2.185l-.691.695c-.642.645-.395 1.737.445 2.085.493.198 1.037.297 1.58.347.74.1 1.333.695 1.333 1.49v3.374c0 5.262-3.95 9.78-9.185 10.127-5.68.397-10.47-4.17-10.52-9.878 0-.794-.592-1.49-1.382-1.539-.84-.05-1.58.645-1.58 1.49 0 7.097 5.777 12.905 12.84 12.905 6.864 0 12.494-5.41 12.84-12.26v-9.085a6.923 6.923 0 0 0-6.124-6.9z"/></svg>