<svg xmlns="http://www.w3.org/2000/svg" width="49" height="48" fill="none" viewBox="0 0 49 48"><path fill="#0088F7" d="M18.387 33.877c-.822 0-1.451-.63-1.451-1.454s.629-1.454 1.451-1.454c3.339 0 6.532-1.309 8.903-3.684 3.097-3.101 4.355-7.511 3.34-11.825a1.445 1.445 0 0 1 1.064-1.745 1.442 1.442 0 0 1 1.741 1.067c1.259 5.282-.241 10.759-4.064 14.587-2.952 2.908-6.823 4.508-10.984 4.508zm9.968-23.893c-.387 0-.726-.146-1.016-.436v-.049a1.464 1.464 0 0 1 0-2.084c.58-.581 1.451-.581 2.032 0l.048.049a1.464 1.464 0 0 1 0 2.084 1.5 1.5 0 0 1-1.064.436z"/><path fill="#444B54" d="M18.358 36.726c-4.686 0-9.42-1.79-12.996-5.371-7.15-7.162-7.15-18.823 0-25.984 7.15-7.161 18.793-7.161 25.943 0 7.198 7.161 7.198 18.822.048 25.984-3.575 3.58-8.26 5.37-12.995 5.37zm0-33.823c-3.962 0-7.923 1.5-10.918 4.549-6.04 6.048-6.04 15.87 0 21.918 6.038 5.952 15.845 5.952 21.884-.048 6.039-6.049 6.039-15.871 0-21.92-3.043-3-7.005-4.5-10.966-4.5zm28.358 37.694l-6.136-6.145c-.82-.823-1.932-1.258-3.091-1.258-.677 0-1.305.145-1.884.435l-1.208-1.21c-.58-.58-1.498-.58-2.03 0-.579.581-.579 1.5 0 2.033l1.209 1.21c-.773 1.596-.484 3.628.82 4.935l6.184 6.145c.87.87 1.981 1.258 3.092 1.258a4.513 4.513 0 0 0 3.092-1.258c.822-.823 1.256-1.936 1.256-3.097 0-1.113-.483-2.226-1.304-3.048zm-2.03 4.113c-.579.58-1.497.58-2.028 0l-6.184-6.145c-.58-.581-.58-1.5 0-2.033a1.39 1.39 0 0 1 1.015-.435c.386 0 .773.145 1.014.435l6.136 6.145c.29.29.434.63.434 1.017 0 .387-.096.725-.386 1.016z"/></svg>