<svg xmlns="http://www.w3.org/2000/svg" width="98" height="20" fill="none" viewBox="0 0 98 20"><path fill="#B2B7BB" d="M41.463 3.028a8.051 8.051 0 0 0-2.54-1.722 7.754 7.754 0 0 0-3.088-.629 7.99 7.99 0 0 0-2.921.51 8.075 8.075 0 0 0-2.505 1.556l-1.283-1.46a.738.738 0 0 0-.546-.25.724.724 0 0 0-.724.736v16.505a.736.736 0 0 0 .641.724h3.11a.736.736 0 0 0 .725-.736V8.763c0-.457.093-.91.273-1.33A3.455 3.455 0 0 1 35.8 5.331a3.3 3.3 0 0 1 1.318.274 3.455 3.455 0 0 1 1.817 1.84c.165.407.25.843.25 1.282v9.5a.736.736 0 0 0 .736.735h3.11a.736.736 0 0 0 .725-.736V8.727a7.93 7.93 0 0 0-.63-3.134 8.194 8.194 0 0 0-1.662-2.565zm35.265-1.971H64.486a.736.736 0 0 0-.724.736v3.1a.724.724 0 0 0 .724.735h.82a.736.736 0 0 1 .736.736v4.596a7.907 7.907 0 0 0 .629 3.122 8.145 8.145 0 0 0 4.274 4.287 7.719 7.719 0 0 0 3.111.63h2.731a.736.736 0 0 0 .725-.737v-3.1a.736.736 0 0 0-.725-.735h-2.73a3.407 3.407 0 0 1-1.354-.273 3.444 3.444 0 0 1-1.84-1.852 3.395 3.395 0 0 1-.262-1.354V6.353a.736.736 0 0 1 .641-.737h5.474a.736.736 0 0 0 .725-.736V1.793a.736.736 0 0 0-.713-.736zM96.64.724a.724.724 0 0 0-.558.262L94.99 2.28a.723.723 0 0 1-1.033.095c-.263-.227-.536-.44-.82-.641a10.244 10.244 0 0 0-1.543-.915 9.01 9.01 0 0 0-1.65-.605A7.006 7.006 0 0 0 88.21 0a9.13 9.13 0 0 0-3.562.7 8.858 8.858 0 0 0-2.91 1.96 9.262 9.262 0 0 0-1.97 3.016 10.08 10.08 0 0 0-.7 3.823 10.554 10.554 0 0 0 .712 4.013 8.74 8.74 0 0 0 1.97 2.98 8.43 8.43 0 0 0 2.91 1.853 9.846 9.846 0 0 0 3.562.641 6.834 6.834 0 0 0 1.71-.225 9.364 9.364 0 0 0 1.65-.594 10.17 10.17 0 0 0 1.532-.89c.273-.19.534-.392.795-.594a.724.724 0 0 1 1.045.142l1.093 1.52a.724.724 0 0 0 1.318-.415V1.46a.736.736 0 0 0-.725-.736zM92.401 11.34a5.26 5.26 0 0 1-.973 1.555 4.89 4.89 0 0 1-1.449 1.092c-.55.27-1.156.408-1.77.404a4.878 4.878 0 0 1-1.768-.32 3.965 3.965 0 0 1-1.437-.938 4.393 4.393 0 0 1-.962-1.532 5.781 5.781 0 0 1-.344-2.102c-.01-.712.11-1.42.356-2.09.22-.55.547-1.05.962-1.472a4 4 0 0 1 1.437-.938 4.892 4.892 0 0 1 1.769-.32 3.942 3.942 0 0 1 1.769.403c.54.255 1.028.61 1.437 1.045.413.457.743.984.973 1.555a4.845 4.845 0 0 1 0 3.646v.012zM3.871 1.02H.736A.736.736 0 0 0 0 1.757v16.505a.736.736 0 0 0 .736.736h3.135a.736.736 0 0 0 .724-.736V1.757a.724.724 0 0 0-.724-.736zM16.73 2.21a.736.736 0 0 0-.559-1.188H12.61a.724.724 0 0 0-.558.262L5.01 9.499a.724.724 0 0 0 0 .962l7.124 8.24a.724.724 0 0 0 .558.261h3.562a.736.736 0 0 0 .558-1.187l-6.376-7.267a.736.736 0 0 1 0-.961l6.293-7.338zm6.85-1.188a.725.725 0 0 0-.558.25l-.142.166-2.969 3.396a.725.725 0 0 0-.178.475v12.954a.726.726 0 0 0 .724.736h3.111a.736.736 0 0 0 .725-.736V1.757a.736.736 0 0 0-.725-.736h.012zM60.912 9.44a5.603 5.603 0 0 0-1.805-1.128A6.198 6.198 0 0 0 56.9 7.92h-4.75a1.08 1.08 0 0 1-.807-.344 1.188 1.188 0 0 1-.285-.808 1.187 1.187 0 0 1 1.187-1.187h8.526a.736.736 0 0 0 .724-.736V1.793a.736.736 0 0 0-.724-.736h-8.633a5.604 5.604 0 0 0-2.267.451A5.64 5.64 0 0 0 46.9 4.524a5.582 5.582 0 0 0-.44 2.232 5.582 5.582 0 0 0 .452 2.233 5.747 5.747 0 0 0 2.957 3.063 5.5 5.5 0 0 0 2.22.451h4.904a.973.973 0 0 1 .74 1.621.962.962 0 0 1-.716.315h-9.844a.723.723 0 0 0-.724.736v3.099a.726.726 0 0 0 .724.736h9.713a5.64 5.64 0 0 0 4.013-1.674 5.938 5.938 0 0 0 1.188-1.817 5.532 5.532 0 0 0 .45-2.22 5.128 5.128 0 0 0-.45-2.161 5.27 5.27 0 0 0-1.176-1.698z" opacity=".55"/></svg>