<svg xmlns="http://www.w3.org/2000/svg" width="237" height="42" fill="none" viewBox="0 0 237 42"><g opacity=".55"><path fill="#B2B7BB" d="M21 42c11.598 0 21-9.402 21-21S32.598 0 21 0 0 9.402 0 21s9.402 21 21 21z"/><path fill="#fff" d="M23.44 10H13v22h4.32v-6.6h6.12a7.49 7.49 0 0 0 5.346-2.255A7.773 7.773 0 0 0 31 17.7c0-2.042-.797-4-2.214-5.445A7.49 7.49 0 0 0 23.44 10zm0 11h-6.12v-6.6h6.12c.86 0 1.683.348 2.291.966.608.62.949 1.459.949 2.334s-.341 1.715-.949 2.334A3.21 3.21 0 0 1 23.44 21z"/><path fill="#B2B7BB" d="M54 31.667V11h9.5c4.417 0 6.821 2.984 6.821 6.544 0 3.56-2.435 6.512-6.821 6.512h-5.17v7.61H54zm11.909-14.123c0-1.705-1.31-2.741-3.017-2.741h-4.567v5.448h4.567c1.706.002 3.017-1.033 3.017-2.707zm7.044 14.123V16.6h3.877v1.978c1.068-1.291 2.864-2.343 4.692-2.343v3.775a4.973 4.973 0 0 0-1.068-.09c-1.292 0-2.985.73-3.619 1.673V31.67l-3.882-.002zm10.024-7.732c0-4.17 2.924-7.701 7.755-7.701 4.831 0 7.796 3.531 7.796 7.7 0 4.17-2.91 7.733-7.783 7.733s-7.768-3.563-7.768-7.732zm11.544 0c0-2.284-1.341-4.263-3.776-4.263-2.435 0-3.748 1.98-3.748 4.263 0 2.284 1.339 4.29 3.748 4.29 2.409 0 3.776-1.983 3.776-4.29zm17.033 7.732v-2.253a5.676 5.676 0 0 1-4.537 2.253c-3.686 0-6.517-2.8-6.517-7.732 0-4.78 2.774-7.701 6.517-7.701a5.588 5.588 0 0 1 4.537 2.258V11h3.898v20.667h-3.898zm0-5.115v-5.203c-.641-.974-2.042-1.674-3.322-1.674-2.223 0-3.746 1.736-3.746 4.262 0 2.527 1.523 4.291 3.746 4.291 1.282-.002 2.683-.695 3.322-1.676zm17.668 5.115v-2.222a6.978 6.978 0 0 1-5.17 2.222c-3.229 0-4.751-1.767-4.751-4.627V16.6h3.877v8.918c0 2.041 1.068 2.71 2.712 2.71a4.33 4.33 0 0 0 3.36-1.674v-9.953h3.878v15.066h-3.906zm6.78-7.732c0-4.505 3.288-7.701 7.796-7.701 3.017 0 4.844 1.31 5.819 2.648l-2.531 2.374a3.561 3.561 0 0 0-3.102-1.584c-2.347 0-3.991 1.705-3.991 4.263 0 2.557 1.644 4.29 3.991 4.29a3.663 3.663 0 0 0 3.102-1.614l2.531 2.374c-.975 1.341-2.802 2.68-5.819 2.68-4.508.002-7.796-3.194-7.796-7.73zm16.939 3.684v-7.64h-2.435v-3.378h2.435v-4.017h3.877V16.6h2.983v3.379h-2.99v6.605c0 .943.486 1.643 1.339 1.643.579 0 1.129-.214 1.339-.457l.824 2.953c-.579.516-1.615.945-3.228.945-2.712-.002-4.144-1.403-4.144-4.05zm31.627 4.048v-8.918h-9.593v8.918h-4.325V11h4.325v7.975h9.595V11h4.364v20.667h-4.366zm18.195 0v-2.222a6.978 6.978 0 0 1-5.17 2.222c-3.228 0-4.751-1.767-4.751-4.627V16.6h3.877v8.918c0 2.041 1.068 2.71 2.712 2.71a4.326 4.326 0 0 0 3.36-1.674v-9.953h3.878v15.066h-3.906zm17.642 0v-9.254c0-2.04-1.065-2.74-2.711-2.74a4.31 4.31 0 0 0-3.361 1.704v10.29h-3.877V16.6h3.877v1.89a6.893 6.893 0 0 1 5.149-2.252c3.26 0 4.811 1.826 4.811 4.686v10.742h-3.888zm8.507-4.048v-7.64h-2.435v-3.378h2.435v-4.017h3.878V16.6h2.983v3.379h-2.983v6.605c0 .943.486 1.643 1.339 1.643.579 0 1.129-.214 1.341-.457l.822 2.953c-.579.516-1.615.945-3.228.945-2.72-.002-4.152-1.403-4.152-4.05z"/></g></svg>