<svg xmlns="http://www.w3.org/2000/svg" width="183" height="48" fill="none" viewBox="0 0 183 48"><path fill="#B2B7BB" d="M58.217 19.33c0 .608.108 1.124.325 1.548.216.423.504.765.864 1.027.354.262.772.457 1.246.584.476.127.978.19 1.51.19.349 0 .724-.03 1.125-.09.4-.06.774-.172 1.125-.341.349-.17.642-.403.872-.699.233-.296.351-.671.351-1.13 0-.49-.156-.888-.462-1.193-.308-.303-.712-.562-1.211-.774-.5-.211-1.066-.39-1.698-.533a35.3 35.3 0 0 1-1.924-.495 16.862 16.862 0 0 1-1.949-.622 6.59 6.59 0 0 1-1.697-.952 4.504 4.504 0 0 1-1.211-1.446c-.307-.575-.462-1.287-.462-2.133 0-.932.195-1.739.586-2.425a5.371 5.371 0 0 1 1.538-1.713 6.618 6.618 0 0 1 2.147-1.016 9.032 9.032 0 0 1 2.396-.33c.931 0 1.828.105 2.686.317.858.212 1.62.554 2.283 1.029a5.17 5.17 0 0 1 1.587 1.815c.391.735.587 1.629.587 2.677h-3.795c-.036-.54-.146-.99-.34-1.345a2.216 2.216 0 0 0-.761-.838 3.157 3.157 0 0 0-1.098-.43 6.62 6.62 0 0 0-1.322-.128 4.56 4.56 0 0 0-.951.1 2.538 2.538 0 0 0-.86.356c-.26.17-.472.386-.637.648-.167.262-.25.58-.25.952 0 .354.066.643.198.863.134.22.396.419.788.597.39.177.934.364 1.624.558.69.195 1.593.436 2.708.724.217.05.5.122.85.214.35.094.72.221 1.112.382.39.161.78.368 1.174.622.388.254.747.567 1.072.94.325.372.587.816.787 1.332.201.517.3 1.113.3 1.79a5.62 5.62 0 0 1-.474 2.31 5.03 5.03 0 0 1-1.412 1.84c-.625.518-1.398.923-2.322 1.22-.925.296-1.994.444-3.208.444a10.73 10.73 0 0 1-2.86-.382c-.924-.253-1.737-.642-2.435-1.166a5.878 5.878 0 0 1-1.686-2.005c-.424-.812-.629-1.776-.613-2.893h3.797zM70.501 7.22h5.521l4.17 12.465h.05l3.946-12.466h5.517v18.126h-3.67V12.499h-.049l-4.37 12.846h-3.022l-4.371-12.719h-.049v12.718h-3.673V7.219zm26.273 0h4.021l6.666 18.125h-4.071l-1.348-4.035h-6.666l-1.4 4.035h-3.97l6.768-18.126zm-.375 11.119h4.62l-2.246-6.651h-.053l-2.321 6.65zm14.034.991c0 .608.109 1.124.325 1.548.218.423.505.765.863 1.027a3.68 3.68 0 0 0 1.248.584c.471.127.976.19 1.507.19.351 0 .725-.03 1.125-.09.401-.06.775-.172 1.127-.341.35-.17.642-.403.874-.699.235-.296.35-.671.35-1.13 0-.49-.154-.888-.461-1.193-.312-.303-.712-.562-1.213-.774-.5-.211-1.067-.39-1.7-.533a36.5 36.5 0 0 1-1.925-.495 17.05 17.05 0 0 1-1.945-.622 6.624 6.624 0 0 1-1.698-.952 4.476 4.476 0 0 1-1.212-1.446c-.31-.575-.461-1.287-.461-2.133 0-.932.195-1.739.586-2.425a5.395 5.395 0 0 1 1.535-1.713 6.671 6.671 0 0 1 2.15-1.016 8.983 8.983 0 0 1 2.395-.33c.933 0 1.829.105 2.687.317.858.212 1.62.554 2.287 1.029a5.208 5.208 0 0 1 1.582 1.815c.392.735.588 1.629.588 2.677h-3.795c-.034-.54-.145-.99-.338-1.345a2.213 2.213 0 0 0-.764-.838 3.16 3.16 0 0 0-1.099-.43 6.625 6.625 0 0 0-1.324-.128c-.316 0-.628.034-.945.1a2.518 2.518 0 0 0-.862.356c-.263.17-.476.386-.638.648-.166.262-.25.58-.25.952 0 .354.068.643.202.863.132.22.39.419.782.597.391.177.932.364 1.625.558.691.195 1.596.436 2.71.724.219.05.503.122.853.214.35.094.72.221 1.109.382.39.161.782.368 1.173.622s.749.567 1.075.94c.325.372.587.816.787 1.332.201.517.3 1.113.3 1.79 0 .83-.159 1.599-.476 2.31a5.027 5.027 0 0 1-1.408 1.84c-.625.518-1.403.923-2.328 1.22-.922.296-1.991.444-3.208.444-.983 0-1.933-.128-2.857-.382a7.188 7.188 0 0 1-2.437-1.166 5.898 5.898 0 0 1-1.686-2.005c-.425-.812-.629-1.776-.612-2.893h3.797zm12.288-12.11h3.92v6.955h7.219V7.22h3.919v18.126h-3.919v-7.819h-7.219v7.819h-3.92V7.219zm17.257 0h3.92v18.125h-3.92V7.219zm6.113 0h3.898l7.444 12.16h.046V7.22h3.674v18.125h-3.924l-7.415-12.134h-.051v12.134h-3.673l.001-18.126zm29.931 14.198c.161-.201.357-.603.357-.603l-1.012.21c-.966-.577-2.99-1.881-2.99-1.881l-.476-.291.821-.162 10.135-1.778-1.708 10.887c-.858-1.09-2.246-2.849-2.246-2.849l.07-1.147-.579.5c-2.92 2.148-6.41 3.006-10.197 1.43-2.42-1.009-4.094-2.822-5.069-5.253a9.659 9.659 0 0 1 5.364-12.59c4.486-1.811 9.929.18 11.637 4.296-1.007.592-3.046 1.434-3.046 1.434s-.945-1.224-1.57-1.748c-2.627-2.204-6.375-1.516-8.462 1.183-2.033 2.627-1.628 6.517.857 8.653 1.991 1.703 5.964 2.542 8.114-.29zm-119.41 8.459h1.543l3.81 9.73 3.794-9.73h1.544v11.099h-1.05v-9.591h-.03l-3.764 9.59h-.987l-3.78-9.59h-.032v9.59h-1.048V29.878zm22.568 0h1.172l4.32 11.099h-1.127l-1.342-3.451H77.19l-1.326 3.45h-1.127l4.442-11.098zm-1.666 6.747h4.335l-2.129-5.69-2.206 5.69zm24.035 4.352h-.756l-.139-2.02h-.031a3.8 3.8 0 0 1-.687 1.016 3.771 3.771 0 0 1-.903.7 4.08 4.08 0 0 1-1.056.404 5.098 5.098 0 0 1-1.164.132c-.865 0-1.623-.158-2.276-.475a4.672 4.672 0 0 1-1.628-1.272 5.49 5.49 0 0 1-.972-1.851 7.375 7.375 0 0 1-.324-2.185c0-.757.109-1.486.324-2.184.216-.7.54-1.318.972-1.85a4.69 4.69 0 0 1 1.628-1.275c.654-.315 1.412-.474 2.276-.474.575 0 1.12.077 1.635.233a4.29 4.29 0 0 1 1.382.7c.405.31.745.696 1.018 1.157.272.463.461.992.562 1.593h-1.048a2.533 2.533 0 0 0-.316-.97 3.413 3.413 0 0 0-.726-.895 3.731 3.731 0 0 0-2.506-.916c-.73 0-1.356.139-1.882.419-.525.28-.954.65-1.289 1.11a4.763 4.763 0 0 0-.74 1.571 6.764 6.764 0 0 0 0 3.568c.16.58.406 1.1.74 1.562.335.462.764.83 1.289 1.111.524.281 1.152.42 1.883.42.605 0 1.148-.101 1.626-.304a3.433 3.433 0 0 0 1.212-.846 3.59 3.59 0 0 0 .74-1.29 4.946 4.946 0 0 0 .232-1.633h-3.749v-.901h4.674l-.001 5.645zm11.708-11.099h1.171l4.323 11.099h-1.128l-1.34-3.451h-5.014l-1.325 3.45h-1.127l4.44-11.098zm-1.666 6.747h4.335l-2.128-5.69-2.207 5.69zm14.083-6.747h7.93v.933l-7.251 9.265h7.405v.9h-8.578v-.932l7.251-9.264h-6.756l-.001-.902zm15.936 0h1.051v11.099h-1.051v-11.1zm9.794 0h1.172l6.417 9.389h.031v-9.39h1.05v11.1h-1.172l-6.419-9.388h-.028v9.388h-1.051v-11.1zm17.339 0h7.606v.902h-6.556v4.01h6.139v.902h-6.139v4.384h6.632v.9h-7.683l.001-11.098zm-140.66 1.099c-.865-.784-1.917-1.41-2.974-1.915-2.537-1.214-5.147-2.272-7.687-3.473-7.06-3.337-11.577-10.92-6.44-19.958l-7.52 1.728c-2.397.55-3.896 2.954-3.35 5.37L7.3 44.51c.547 2.416 2.932 3.927 5.332 3.377l3.132-.721c0-.018.002-.035 0-.053l-6.102-2.731 3.628-8.686c.782.471 1.333.821 1.901 1.143 3.327 1.874 6.851 2.747 10.665 2.103 1.769-.297 3.29-.948 3.795-2.911.514-2.003-.102-3.725-1.568-5.055zM35.005.113l-4.487 1.03c.003.003.003.005.003.005 2.184.715 4.073 1.276 5.888 2.007l1.603.644s-2.23 5.827-3.175 8.591C31.271 9.52 27.9 8.742 24.01 9.32c-1.67.25-3.297 1.396-3.786 3.144-.511 1.832.123 3.265 1.64 4.254a24.472 24.472 0 0 0 3.528 1.875c2.376 1.038 4.835 1.893 7.185 2.988 5.787 2.692 8.772 7.213 8.253 13.73-.149 1.885-.7 4.122-1.192 6.323a.447.447 0 0 1 .032.041l4.502-1.034c2.397-.55 3.896-2.955 3.352-5.37L40.334 3.49C39.786 1.074 37.4-.438 35.004.113z" opacity=".55"/></svg>